<svg width="33" height="33" viewBox="0 0 33 33" fill="none" xmlns="http://www.w3.org/2000/svg">
<circle cx="16.5084" cy="16.0854" r="16.0005" fill="black"/>
<path fill-rule="evenodd" clip-rule="evenodd" d="M10.3911 5.99857C10.5879 5.94462 10.8383 5.89612 11.1424 5.85306C11.4644 5.79919 11.7774 5.77236 12.0814 5.77257C13.0649 5.77323 13.8336 5.90894 14.3875 6.17972C14.9413 6.43967 15.4413 6.86725 15.8872 7.46244C14.7583 8.75962 13.7007 10.1326 12.7145 11.5813C11.7462 13.0408 10.2923 15.6916 10.2923 16.0089C10.2923 16.0585 10.3044 16.1205 10.3044 16.1535C10.3044 16.2723 11.6578 19.2749 12.4419 20.7464C13.2261 22.2072 14.073 23.576 14.9826 24.8529C15.3394 25.3399 15.7141 25.7565 16.1069 26.1029C16.4818 26.4601 16.9015 26.7524 17.366 26.9799C17.8306 27.2073 18.3578 27.3753 18.9477 27.4839C19.5197 27.5924 20.1723 27.6469 20.9055 27.6474C21.1022 27.6476 21.3079 27.6369 21.5225 27.6154C21.7371 27.6047 21.9518 27.5832 22.1664 27.5509C22.3632 27.5294 22.551 27.5025 22.7299 27.4702C22.8909 27.4378 23.0071 27.4109 23.0787 27.3893C23.0787 27.3893 23.8468 27.3054 23.848 26.7748C23.8496 26.1029 22.6249 26.1722 22.6249 26.1722C22.4281 26.2261 22.1777 26.2746 21.8736 26.3177C21.5516 26.3715 21.2386 26.3984 20.9346 26.3982C19.9511 26.3975 19.1824 26.2618 18.6285 25.991C18.0747 25.7311 17.5747 25.3035 17.1288 24.7083C18.2577 23.4111 19.3153 22.0382 20.3015 20.5895C21.2698 19.1299 22.7237 16.4792 22.7237 16.1619C22.7237 16.1122 22.7116 16.0503 22.7116 16.0172C22.7116 15.8985 21.3582 12.8958 20.5741 11.4243C19.79 9.96359 18.9431 8.59478 18.0334 7.31786C17.6766 6.83089 17.3019 6.41422 16.9091 6.06784C16.5342 5.71065 16.1145 5.41834 15.65 5.19088C15.1855 4.96343 14.6582 4.79543 14.0683 4.68687C13.4963 4.57833 12.8437 4.52381 12.1105 4.52332C11.9138 4.52319 11.7081 4.53387 11.4935 4.55535C11.2789 4.56603 11.0643 4.58751 10.8496 4.61982C10.6529 4.64132 10.465 4.66823 10.2862 4.70056C10.1252 4.7329 10.0089 4.75986 9.93731 4.78145C9.93731 4.78145 9.16923 4.86531 9.16797 5.39592C9.16638 6.06784 10.3911 5.99857 10.3911 5.99857ZM12.9941 16.4456C12.9272 16.2772 12.8878 16.1773 12.8878 16.1773L12.9746 16.0107C13.1239 15.6431 13.2936 15.2539 13.4838 14.8432C13.5675 14.8878 13.6549 14.9346 13.7461 14.9838C14.013 15.1329 14.2947 15.291 14.5912 15.458C14.8878 15.6251 15.1794 15.7951 15.466 15.9681L16.2519 16.4424L12.9941 16.4456ZM13.3277 17.2787L19.5572 17.2735C19.4879 17.4239 19.4159 17.5772 19.3411 17.7334C19.0539 18.2956 18.7399 18.8741 18.3991 19.4687C18.0582 20.0634 17.6906 20.658 17.296 21.2526C16.9015 21.8473 16.4892 22.4203 16.059 22.9716C15.3816 21.8354 14.7935 20.7102 14.2948 19.5958C14.0244 18.9914 13.6302 18.0287 13.3277 17.2787ZM19.9256 16.4399C19.9932 16.3535 20.0898 16.1773 20.0898 16.1773C20.0898 16.1773 19.8344 15.2266 19.6832 14.8484C19.679 14.8504 19.6747 14.8524 19.6705 14.8544C19.3054 15.0159 18.9601 15.1863 18.6346 15.3657C18.2992 15.5451 17.9934 15.7275 17.7173 15.9128C17.4411 16.0982 17.2094 16.2745 17.0221 16.4419L19.9256 16.4399ZM19.3359 13.9977C19.0265 14.1361 18.723 14.2815 18.4255 14.4342C18.0309 14.6255 17.6659 14.8229 17.3306 15.0262C16.9952 15.2235 16.7141 15.4118 16.4873 15.5911C16.2204 15.436 15.9387 15.272 15.6422 15.099L14.7377 14.571C14.4398 14.4028 14.1466 14.2403 13.8581 14.0834C14.0942 13.6331 14.3472 13.1726 14.6169 12.702C14.9578 12.1074 15.3255 11.5127 15.72 10.9181C16.1145 10.3235 16.5268 9.75049 16.957 9.19915C17.6344 10.3353 18.2225 11.4606 18.7212 12.575C18.9308 13.0435 19.1357 13.5177 19.3359 13.9977Z" fill="#6FABC5"/>
<path fill-rule="evenodd" clip-rule="evenodd" d="M10.3911 5.99857C10.5879 5.94462 10.8383 5.89612 11.1424 5.85306C11.4644 5.79919 11.7774 5.77236 12.0814 5.77257C13.0649 5.77323 13.8336 5.90894 14.3875 6.17972C14.9413 6.43967 15.4413 6.86725 15.8872 7.46244C14.7583 8.75962 13.7007 10.1326 12.7145 11.5813C11.7462 13.0408 10.2923 15.6916 10.2923 16.0089C10.2923 16.0585 10.3044 16.1205 10.3044 16.1535C10.3044 16.2723 11.6578 19.2749 12.4419 20.7464C13.2261 22.2072 14.073 23.576 14.9826 24.8529C15.3394 25.3399 15.7141 25.7565 16.1069 26.1029C16.4818 26.4601 16.9015 26.7524 17.366 26.9799C17.8306 27.2073 18.3578 27.3753 18.9477 27.4839C19.5197 27.5924 20.1723 27.6469 20.9055 27.6474C21.1022 27.6476 21.3079 27.6369 21.5225 27.6154C21.7371 27.6047 21.9518 27.5832 22.1664 27.5509C22.3632 27.5294 22.551 27.5025 22.7299 27.4702C22.8909 27.4378 23.0071 27.4109 23.0787 27.3893C23.0787 27.3893 23.8468 27.3054 23.848 26.7748C23.8496 26.1029 22.6249 26.1722 22.6249 26.1722C22.4281 26.2261 22.1777 26.2746 21.8736 26.3177C21.5516 26.3715 21.2386 26.3984 20.9346 26.3982C19.9511 26.3975 19.1824 26.2618 18.6285 25.991C18.0747 25.7311 17.5747 25.3035 17.1288 24.7083C18.2577 23.4111 19.3153 22.0382 20.3015 20.5895C21.2698 19.1299 22.7237 16.4792 22.7237 16.1619C22.7237 16.1122 22.7116 16.0503 22.7116 16.0172C22.7116 15.8985 21.3582 12.8958 20.5741 11.4243C19.79 9.96359 18.9431 8.59478 18.0334 7.31786C17.6766 6.83089 17.3019 6.41422 16.9091 6.06784C16.5342 5.71065 16.1145 5.41834 15.65 5.19088C15.1855 4.96343 14.6582 4.79543 14.0683 4.68687C13.4963 4.57833 12.8437 4.52381 12.1105 4.52332C11.9138 4.52319 11.7081 4.53387 11.4935 4.55535C11.2789 4.56603 11.0643 4.58751 10.8496 4.61982C10.6529 4.64132 10.465 4.66823 10.2862 4.70056C10.1252 4.7329 10.0089 4.75986 9.93731 4.78145C9.93731 4.78145 9.16923 4.86531 9.16797 5.39592C9.16638 6.06784 10.3911 5.99857 10.3911 5.99857ZM12.9941 16.4456C12.9272 16.2772 12.8878 16.1773 12.8878 16.1773L12.9746 16.0107C13.1239 15.6431 13.2936 15.2539 13.4838 14.8432C13.5675 14.8878 13.6549 14.9346 13.7461 14.9838C14.013 15.1329 14.2947 15.291 14.5912 15.458C14.8878 15.6251 15.1794 15.7951 15.466 15.9681L16.2519 16.4424L12.9941 16.4456ZM13.3277 17.2787L19.5572 17.2735C19.4879 17.4239 19.4159 17.5772 19.3411 17.7334C19.0539 18.2956 18.7399 18.8741 18.3991 19.4687C18.0582 20.0634 17.6906 20.658 17.296 21.2526C16.9015 21.8473 16.4892 22.4203 16.059 22.9716C15.3816 21.8354 14.7935 20.7102 14.2948 19.5958C14.0244 18.9914 13.6302 18.0287 13.3277 17.2787ZM19.9256 16.4399C19.9932 16.3535 20.0898 16.1773 20.0898 16.1773C20.0898 16.1773 19.8344 15.2266 19.6832 14.8484C19.679 14.8504 19.6747 14.8524 19.6705 14.8544C19.3054 15.0159 18.9601 15.1863 18.6346 15.3657C18.2992 15.5451 17.9934 15.7275 17.7173 15.9128C17.4411 16.0982 17.2094 16.2745 17.0221 16.4419L19.9256 16.4399ZM19.3359 13.9977C19.0265 14.1361 18.723 14.2815 18.4255 14.4342C18.0309 14.6255 17.6659 14.8229 17.3306 15.0262C16.9952 15.2235 16.7141 15.4118 16.4873 15.5911C16.2204 15.436 15.9387 15.272 15.6422 15.099L14.7377 14.571C14.4398 14.4028 14.1466 14.2403 13.8581 14.0834C14.0942 13.6331 14.3472 13.1726 14.6169 12.702C14.9578 12.1074 15.3255 11.5127 15.72 10.9181C16.1145 10.3235 16.5268 9.75049 16.957 9.19915C17.6344 10.3353 18.2225 11.4606 18.7212 12.575C18.9308 13.0435 19.1357 13.5177 19.3359 13.9977Z" fill="url(#paint0_linear)"/>
<defs>
<linearGradient id="paint0_linear" x1="23.8484" y1="16.0854" x2="9.16833" y2="16.0854" gradientUnits="userSpaceOnUse">
<stop stop-color="#25A842"/>
<stop offset="0.592475" stop-color="#00B3A8"/>
</linearGradient>
</defs>
</svg>
