<svg width="32" height="32" viewBox="0 0 32 32" fill="none" xmlns="http://www.w3.org/2000/svg">
<path d="M30.7295 21.1364C31.0603 21.019 31.4099 21.3397 31.2864 21.6682C30.3554 24.146 28.8268 26.3567 26.8329 28.097C24.6062 30.0404 21.8871 31.3204 18.98 31.7937C16.0729 32.267 13.0926 31.9149 10.3727 30.7768C7.65281 29.6387 5.30066 27.7595 3.57958 25.3497C1.8585 22.9398 0.836421 20.0944 0.62777 17.1319C0.41912 14.1694 1.03213 11.2068 2.39817 8.57581C3.76422 5.94478 5.82938 3.74914 8.36246 2.2347C10.619 0.885606 13.1675 0.124511 15.7784 0.0126231C16.134 -0.00261577 16.3264 0.440263 16.1 0.714917C14.39 2.78962 10.2052 9.13467 15.6353 16.4288C21.0658 23.7235 28.277 22.0067 30.7295 21.1364Z" fill="#333231"/>
</svg>
