<svg width="202" height="229" viewBox="0 0 202 229" fill="none" xmlns="http://www.w3.org/2000/svg">
<path d="M100.895 26.6016L199.203 228.925H2.58594L100.895 26.6016Z" fill="#0099FF" fill-opacity="0.3"/>
<path d="M100.895 26.6016L199.203 228.925H2.58594L100.895 26.6016Z" fill="url(#paint0_linear)"/>
<path d="M140.793 40.7704C140.793 30.1887 136.589 20.0404 129.107 12.558C121.624 5.07563 111.476 0.872071 100.894 0.87207C90.3127 0.87207 80.1644 5.07563 72.682 12.558C65.1997 20.0404 60.9961 30.1887 60.9961 40.7704L140.793 40.7704Z" fill="#0099FF" fill-opacity="0.6"/>
<path d="M118.471 155.354C108.017 191.687 106.215 169.873 97.0107 167.224C87.8066 164.576 66.7646 182.96 85.1406 145.763C91.114 133.672 97.3973 131.245 106.601 133.893C115.805 136.542 121.314 145.474 118.471 155.354Z" fill="white" fill-opacity="0.55"/>
<path d="M101.356 144.456C100.979 145.719 99.6492 146.437 98.3859 146.06C97.1225 145.683 96.4042 144.353 96.7814 143.09C97.1586 141.826 98.4885 141.108 99.7518 141.485C101.015 141.862 101.734 143.192 101.356 144.456Z" fill="black" fill-opacity="0.1"/>
<path d="M111.081 147.359C110.704 148.623 109.374 149.341 108.111 148.964C106.848 148.587 106.129 147.257 106.507 145.993C106.884 144.73 108.214 144.012 109.477 144.389C110.74 144.766 111.459 146.096 111.081 147.359Z" fill="black" fill-opacity="0.1"/>
<path d="M105.83 156.119C105.546 157.138 104.49 157.734 103.471 157.45L96.5623 155.527C95.5432 155.243 94.9471 154.187 95.2308 153.168L95.4309 152.449C95.6509 151.659 96.0492 151.017 96.6259 150.524C97.2026 150.03 97.9128 149.724 98.7565 149.605C99.6013 149.482 100.512 149.554 101.489 149.821L102.166 150.01C103.165 150.288 103.995 150.698 104.655 151.24C105.315 151.778 105.761 152.411 105.993 153.139C106.225 153.862 106.233 154.633 106.016 155.451L105.83 156.119Z" fill="black" fill-opacity="0.1"/>
<path d="M97.1341 188.095C96.565 190.001 94.5583 191.085 92.652 190.516C90.7458 189.946 89.6619 187.94 90.231 186.033C90.8002 184.127 92.8069 183.043 94.7131 183.613C96.6194 184.182 97.7033 186.188 97.1341 188.095Z" fill="white" fill-opacity="0.55"/>
<path d="M114.045 98.3406C113.476 100.247 111.469 101.331 109.563 100.762C107.656 100.192 106.572 98.1858 107.142 96.2795C107.711 94.3733 109.717 93.2894 111.624 93.8585C113.53 94.4277 114.614 96.4344 114.045 98.3406Z" fill="white" fill-opacity="0.55"/>
<path d="M65.6093 205.668C65.0401 207.574 63.0334 208.658 61.1272 208.089C59.221 207.52 58.137 205.513 58.7062 203.607C59.2754 201.701 61.2821 200.617 63.1883 201.186C65.0945 201.755 66.1785 203.762 65.6093 205.668Z" fill="white" fill-opacity="0.55"/>
<path d="M121.638 207.729C121.069 209.636 119.062 210.719 117.156 210.15C115.25 209.581 114.166 207.574 114.735 205.668C115.304 203.762 117.311 202.678 119.217 203.247C121.124 203.816 122.208 205.823 121.638 207.729Z" fill="white" fill-opacity="0.55"/>
<path d="M59.7368 151.886C59.7368 150.65 60.739 149.647 61.9753 149.647C63.2116 149.647 64.2138 150.65 64.2138 151.886V188.736C64.2138 189.972 63.2116 190.974 61.9753 190.974C60.739 190.974 59.7368 189.972 59.7368 188.736V151.886Z" fill="white" fill-opacity="0.55"/>
<path d="M133.679 151.886C133.679 150.65 134.682 149.647 135.918 149.647C137.154 149.647 138.156 150.65 138.156 151.886V188.736C138.156 189.972 137.154 190.974 135.918 190.974C134.682 190.974 133.679 189.972 133.679 188.736V151.886Z" fill="white" fill-opacity="0.55"/>
<path d="M68.5087 128.976C68.5087 127.74 69.5109 126.738 70.7472 126.738C71.9835 126.738 72.9857 127.74 72.9857 128.976V154.697C72.9857 155.933 71.9835 156.935 70.7472 156.935C69.5109 156.935 68.5087 155.933 68.5087 154.697V128.976Z" fill="white" fill-opacity="0.55"/>
<path d="M124.907 125.246C124.907 124.01 125.91 123.008 127.146 123.008C128.382 123.008 129.384 124.01 129.384 125.246V150.967C129.384 152.203 128.382 153.205 127.146 153.205C125.91 153.205 124.907 152.203 124.907 150.967V125.246Z" fill="white" fill-opacity="0.55"/>
<path d="M78.4888 110.688C78.4888 109.451 79.491 108.449 80.7273 108.449C81.9636 108.449 82.9658 109.451 82.9658 110.688V130.753C82.9658 131.989 81.9636 132.992 80.7273 132.992C79.491 132.992 78.4888 131.989 78.4888 130.753V110.688Z" fill="white" fill-opacity="0.55"/>
<path d="M72.1311 178.296C72.1311 177.059 73.1333 176.057 74.3696 176.057C75.6059 176.057 76.6081 177.059 76.6081 178.296V198.361C76.6081 199.597 75.6059 200.6 74.3696 200.6C73.1333 200.6 72.1311 199.597 72.1311 198.361V178.296Z" fill="white" fill-opacity="0.55"/>
<path d="M122.669 172.549C122.669 171.313 123.671 170.311 124.907 170.311C126.144 170.311 127.146 171.313 127.146 172.549V192.615C127.146 193.851 126.144 194.853 124.907 194.853C123.671 194.853 122.669 193.851 122.669 192.615V172.549Z" fill="white" fill-opacity="0.55"/>
<path d="M118.769 29.5973C118.769 27.6273 118.381 25.6765 117.627 23.8564C116.873 22.0364 115.768 20.3826 114.375 18.9896C112.982 17.5965 111.328 16.4915 109.508 15.7376C107.688 14.9837 105.737 14.5957 103.767 14.5957C101.797 14.5957 99.8464 14.9837 98.0264 15.7376C96.2063 16.4915 94.5525 17.5965 93.1595 18.9896C91.7665 20.3826 90.6615 22.0364 89.9076 23.8564C89.1537 25.6765 88.7656 27.6273 88.7656 29.5973L118.769 29.5973Z" fill="#B6DBF3"/>
<path d="M101.428 24.7953C101.428 25.8003 100.614 26.615 99.6088 26.615C98.6038 26.615 97.7891 25.8003 97.7891 24.7953C97.7891 23.7903 98.6038 22.9756 99.6088 22.9756C100.614 22.9756 101.428 23.7903 101.428 24.7953Z" fill="black" fill-opacity="0.36"/>
<path d="M109.75 24.7953C109.75 25.8003 108.935 26.615 107.93 26.615C106.925 26.615 106.11 25.8003 106.11 24.7953C106.11 23.7903 106.925 22.9756 107.93 22.9756C108.935 22.9756 109.75 23.7903 109.75 24.7953Z" fill="black" fill-opacity="0.36"/>
<path d="M201.026 46.595C201.026 58.5366 156.195 68.2173 100.894 68.2173C45.5923 68.2173 0.761719 58.5366 0.761719 46.595C0.761719 34.6533 45.5923 24.9727 100.894 24.9727C156.195 24.9727 201.026 34.6533 201.026 46.595Z" fill="url(#paint1_linear)"/>
<path d="M59.3547 46.5949C59.3547 43.7516 61.6597 41.4467 64.5029 41.4467H137.683C140.526 41.4467 142.831 43.7516 142.831 46.5949C142.831 49.4381 140.526 51.743 137.683 51.743H64.5029C61.6597 51.743 59.3547 49.4381 59.3547 46.5949Z" fill="#9ABBD1" fill-opacity="0.24"/>
<path d="M112.258 33.0924C112.258 35.0231 107.177 36.5882 100.909 36.5882C94.6409 36.5882 89.5597 35.0231 89.5597 33.0924C89.5597 31.1618 94.6409 29.5967 100.909 29.5967C107.177 29.5967 112.258 31.1618 112.258 33.0924Z" fill="#9ABBD1" fill-opacity="0.24"/>
<path d="M53.1281 40.0991C53.1281 42.0297 48.0469 43.5948 41.7789 43.5948C35.5109 43.5948 30.4297 42.0297 30.4297 40.0991C30.4297 38.1684 35.5109 36.6033 41.7789 36.6033C48.0469 36.6033 53.1281 38.1684 53.1281 40.0991Z" fill="#9ABBD1" fill-opacity="0.24"/>
<path d="M53.1281 53.0911C53.1281 55.0217 48.0469 56.5868 41.7789 56.5868C35.5109 56.5868 30.4297 55.0217 30.4297 53.0911C30.4297 51.1604 35.5109 49.5953 41.7789 49.5953C48.0469 49.5953 53.1281 51.1604 53.1281 53.0911Z" fill="#9ABBD1" fill-opacity="0.24"/>
<path d="M112.442 60.0979C112.442 62.0286 107.361 63.5937 101.093 63.5937C94.8248 63.5937 89.7436 62.0286 89.7436 60.0979C89.7436 58.1673 94.8248 56.6022 101.093 56.6022C107.361 56.6022 112.442 58.1673 112.442 60.0979Z" fill="#9ABBD1" fill-opacity="0.24"/>
<path d="M171.359 53.0911C171.359 55.0217 166.278 56.5868 160.01 56.5868C153.742 56.5868 148.661 55.0217 148.661 53.0911C148.661 51.1604 153.742 49.5953 160.01 49.5953C166.278 49.5953 171.359 51.1604 171.359 53.0911Z" fill="#9ABBD1" fill-opacity="0.24"/>
<path d="M171.359 40.0991C171.359 42.0297 166.278 43.5948 160.01 43.5948C153.742 43.5948 148.661 42.0297 148.661 40.0991C148.661 38.1684 153.742 36.6033 160.01 36.6033C166.278 36.6033 171.359 38.1684 171.359 40.0991Z" fill="#9ABBD1" fill-opacity="0.24"/>
<defs>
<linearGradient id="paint0_linear" x1="100.895" y1="26.6016" x2="100.895" y2="296.366" gradientUnits="userSpaceOnUse">
<stop stop-color="#E1E1E1"/>
<stop offset="0.86801" stop-color="white" stop-opacity="0"/>
</linearGradient>
<linearGradient id="paint1_linear" x1="100.894" y1="24.9727" x2="100.894" y2="68.2173" gradientUnits="userSpaceOnUse">
<stop offset="0.310684" stop-color="#EBEBEB"/>
<stop offset="0.638153" stop-color="#DEDEDE"/>
<stop offset="0.887787" stop-color="#DEDEDE"/>
</linearGradient>
</defs>
</svg>
