<svg width="33" height="33" viewBox="0 0 33 33" fill="none" xmlns="http://www.w3.org/2000/svg">
<path fill-rule="evenodd" clip-rule="evenodd" d="M13.4223 4.47607C14.4817 4.19219 15.5952 4.04082 16.7441 4.04082C18.0513 4.04082 19.3127 4.23676 20.5006 4.60088L17.5097 15.7768L13.4223 4.47607ZM10.2267 5.82202L15.7059 21.3493L14.846 23.716C14.3705 25.1647 13.7623 26.1616 13.0212 26.7067C12.2941 27.2518 11.2733 27.5243 9.9589 27.5243L9.65381 27.4993C6.2118 25.2049 3.94414 21.2877 3.94414 16.8408C3.94414 12.1517 6.46562 8.05143 10.2267 5.82202ZM23.7288 6.1127L17.8243 25.2006C17.1232 27.1233 16.217 28.5688 15.1057 29.5369C15.6422 29.6055 16.189 29.6408 16.7441 29.6408C23.8134 29.6408 29.5441 23.9101 29.5441 16.8408C29.5441 12.3486 27.23 8.39685 23.7288 6.1127ZM0.744142 16.8408C0.744143 8.00426 7.90759 0.840818 16.7441 0.840819C25.5807 0.84082 32.7441 8.00426 32.7441 16.8408C32.7441 25.6774 25.5807 32.8408 16.7441 32.8408C7.90759 32.8408 0.744141 25.6774 0.744142 16.8408Z" fill="#1EC2FF"/>
</svg>
