<svg
 width="31"
 height="32"
 viewBox="0 0 31 32"
 fill="none"
 xmlns="http://www.w3.org/2000/svg"
>
 <path
  d="M30.1417 21.1382C30.4725 21.0208 30.822 21.3415 30.6985 21.67C29.7675 24.1478 28.2389 26.3585 26.245 28.0988C24.0183 30.0422 21.2992 31.3222 18.3921 31.7955C15.485 32.2688 12.5047 31.9167 9.78483 30.7786C7.06492 29.6405 4.71277 27.7613 2.99169 25.3515C1.2706 22.9416 0.24853 20.0962 0.0398798 17.1337C-0.168771 14.1712 0.444238 11.2086 1.81028 8.57761C3.17633 5.94658 5.24149 3.75094 7.77457 2.2365C10.0311 0.887407 12.5796 0.126312 15.1905 0.0144236C15.5461 -0.000815231 15.7385 0.442064 15.5121 0.716717C13.8021 2.79142 9.61736 9.13647 15.0474 16.4306C20.4779 23.7253 27.6891 22.0085 30.1417 21.1382Z"
  fill="#111"
 />
</svg>